# AST/ASF file generated using VICON BodyLanguage
# -----------------------------------------------
:version 1.10
:name VICON
:units
  mass 1.0
  length 0.45
  angle deg
:documentation
   .ast/.asf automatically generated from VICON data using
   VICON BodyBuilder and BodyLanguage model FoxedUp or BRILLIANT.MOD
:root
   order TX TY TZ RX RY RZ
   axis XYZ
   position 0 0 0  
   orientation 0 0 0 
:bonedata
  begin
     id 1 
     name lhipjoint
     direction 0.702568 -0.596508 0.388042 
     length 2.56661 
     axis 0 0 0  XYZ
  end
  begin
     id 2 
     name lfemur
     direction 0.34202 -0.939693 0  
     length 6.58374  
     axis 0 0 20  XYZ
    dof rx ry rz
    limits (-160.0 20.0)
           (-70.0 70.0)
           (-60.0 70.0)
  end
  begin
     id 3 
     name ltibia
     direction 0.34202 -0.939693 0   
     length 6.62538   
     axis 0 0 20   XYZ
    dof rx
    limits (-10.0 170.0)
  end
  begin
     id 4 
     name lfoot
     direction 0.10455 -0.287249 0.952133   
     length 2.26699   
     axis -90 7.62852e-016 20   XYZ
    dof rx rz
    limits (-45.0 90.0)
           (-70.0 20.0)
  end
  begin
     id 5 
     name ltoes
     direction 1.53572e-011 -4.22322e-011 1   
     length 1.12949   
     axis -90 7.62852e-016 20   XYZ
    dof rx
    limits (-90.0 20.0)
  end
  begin
     id 6 
     name rhipjoint
     direction -0.728055 -0.574632 0.373811   
     length 2.66432  
     axis 0 0 0  XYZ 
  end
  begin
     id 7 
     name rfemur
     direction -0.34202 -0.939693 0   
     length 6.66732   
     axis 0 0 -20   XYZ
    dof rx ry rz
    limits (-160.0 20.0)
           (-70.0 70.0)
           (-70.0 60.0)
  end
  begin
     id 8 
     name rtibia
     direction -0.34202 -0.939693 0   
     length 6.59288   
     axis 0 0 -20   XYZ
    dof rx
    limits (-10.0 170.0)
 end
 begin
     id 9 
     name rfoot
     direction -0.119193 -0.327479 0.93731   
     length 2.38061  
     axis -90 -7.62852e-016 -20   XYZ
    dof rx rz
    limits (-45.0 90.0)
           (-20.0 70.0)
  end
  begin
     id 10 
     name rtoes
     direction -1.53547e-011 -4.21827e-011 1   
     length 1.17899   
     axis -90 -7.62852e-016 -20   XYZ
    dof rx
    limits (-90.0 20.0)
  end
  begin
     id 11 
     name lowerback
     direction -0.000416114 0.999912 -0.0132284   
     length 2.12109   
     axis 0 0 0   XYZ
    dof rx ry rz
    limits (-20.0 45.0)
           (-30.0 30.0)
           (-30.0 30.0)
  end
  begin
     id 12 
     name upperback
     direction -0.00136371 0.99809 0.0617608   
     length 2.10067   
     axis 0 0 0   XYZ
    dof rx ry rz
    limits (-20.0 45.0)
           (-30.0 30.0)
           (-30.0 30.0)
  end
  begin
     id 13 
     name thorax
     direction -3.43026e-005 0.997776 0.0666515   
     length 2.10618   
     axis 0 0 0   XYZ
    dof rx ry rz
    limits (-20.0 45.0)
           (-30.0 30.0)
           (-30.0 30.0)
  end
  begin
     id 14 
     name lowerneck
     direction 0.0398646 0.998418 0.0396592   
     length 1.83817   
     axis 0 0 0   XYZ
    dof rx ry rz
    limits (-20.0 45.0)
           (-30.0 30.0)
           (-30.0 30.0)
  end
  begin
     id 15 
     name upperneck
     direction -0.0367268 0.961527 -0.272244   
     length 1.81975   
     axis 0 0 0   XYZ
    dof rx ry rz
    limits (-20.0 45.0)
           (-30.0 30.0)
           (-30.0 30.0)
  end
  begin
     id 16
     name head
     direction -0.0182665 0.99536 -0.0944669  
     length 1.86026  
     axis 0 0 0   XYZ
    dof rx ry rz
    limits (-20.0 45.0)
           (-30.0 30.0)
           (-30.0 30.0)
  end
  begin
     id 17 
     name lclavicle
     direction 0.924239 0.361045 0.124212  
     length 3.26878  
     axis 0 0 0   XYZ
    dof ry rz
    limits (-20.0 10.0)
           (0.0 20.0)
  end
  begin
     id 18 
     name lhumerus
     direction 1 -4.48968e-011 -2.56583e-027   
     length 4.58538   
     axis 180 -30 -90   XYZ
    dof rx ry rz
    limits (-60.0 90.0)
           (-90.0 90.0)
           (-90.0 90.0)
  end
  begin
     id 19
     name lradius
     direction 1 -4.4898e-011 -5.50375e-027   
     length 2.68935   
     axis 180 -30 -90   XYZ
    dof rx
    limits (-10.0 170.0)
  end
  begin
     id 20
     name lwrist
     direction 1 -4.48939e-011 -1.48955e-026   
     length 1.34468   
     axis 9.0955e-015 90 90   XYZ
    dof ry
    limits (-180.0 0.0)
 end
  begin
     id 21 
     name lhand
     direction 1 -4.48936e-011 -2.97907e-026   
     length 0.585058   
     axis 1.90115e-014 90 90   XYZ
    dof rx rz
    limits (-90.0 90.0)
           (-45.0 45.0)
  end
  begin
     id 22 
     name lfingers
     direction 1 -4.49082e-011 -5.96235e-026   
     length 0.471689   
     axis 3.80223e-014 90 90   XYZ
    dof rx
    limits (0.0 90.0)
  end
  begin
     id 23
     name lthumb
     direction 0.707107 -6.3489e-011 0.707107   
     length 0.677253   
     axis -90 45 -3.84942e-014   XYZ
    dof rx rz
    limits (-45.0 45.0)
           (-45.0 45.0)
  end
  begin
     id 24 
     name rclavicle
     direction -0.923098 0.371783 0.0983239   
     length 3.19656  
     axis 0 0 0   XYZ 
    dof ry rz
    limits (-10.0 20.0)
           (-20.0 0.0)
  end
  begin
     id 25 
     name rhumerus
     direction -1 -4.48976e-011 -2.5492e-027  
     length 4.4745   
     axis 180 30 90   XYZ
    dof rx ry rz
    limits (-90.0 60.0)
           (-90.0 90.0)
           (-90.0 90.0)
  end
  begin
     id 26 
     name rradius
     direction -1 -4.48941e-011 -4.36555e-027   
     length 2.93896   
     axis 180 30 90   XYZ
    dof rx
    limits (-10.0 170.0)
  end
  begin
     id 27 
     name rwrist
     direction -1 -4.49044e-011 -1.49032e-026   
     length 1.46948   
     axis 9.0955e-015 -90 -90   XYZ
    dof ry
    limits (-180.0 0.0)
  end
  begin
     id 28
     name rhand
     direction -1 -4.48826e-011 -2.97749e-026   
     length 0.405092   
     axis 1.90115e-014 -90 -90   XYZ
    dof rx rz
    limits (-90.0 90.0)
           (-45.0 45.0)
  end
  begin
     id 29
     name rfingers
     direction -1 -4.49209e-011 -5.96602e-026   
     length 0.326596   
     axis 3.80223e-014 -90 -90   XYZ
    dof rx
    limits (0.0 90.0)
  end
  begin
     id 30
     name rthumb
     direction -0.707107 -6.34776e-011 0.707107   
     length 0.468928   
     axis -90 -45 3.84942e-014   XYZ
    dof rx rz
    limits (-45.0 45.0)
           (-45.0 45.0)
  end
:hierarchy
  begin
    root lhipjoint rhipjoint lowerback
    lhipjoint lfemur
    lfemur ltibia
    ltibia lfoot
    lfoot ltoes
    rhipjoint rfemur
    rfemur rtibia
    rtibia rfoot
    rfoot rtoes
    lowerback upperback
    upperback thorax
    thorax lowerneck lclavicle rclavicle
    lowerneck upperneck
    upperneck head
    lclavicle lhumerus
    lhumerus lradius
    lradius lwrist
    lwrist lhand lthumb
    lhand lfingers
    rclavicle rhumerus
    rhumerus rradius
    rradius rwrist
    rwrist rhand rthumb
    rhand rfingers
  end

#!OML:ASF H:\Punching\Project 1\Capture day 1\Session 1\female.ASF
:FULLY-SPECIFIED
:DEGREES
129
root 0.194684 15.8406 3.75606 15.1632 -9.21198 -4.53851
lowerback -0.523832 -2.38866 3.91875
upperback -4.97615 -3.09563 0.75989
thorax -5.02259 -1.699 -1.27747
lowerneck -5.83862 -8.71393 -3.12028
upperneck 23.0337 -10.2113 -7.24428
head 7.85196 -5.82881 -2.72427
rclavicle -5.69021e-015 0
rhumerus -37.0445 3.0116 -79.6342
rradius 38.775
rwrist 2.11085
rhand -9.58552 -6.60239
rfingers 7.12502
rthumb 16.3827 -35.9305
lclavicle -5.69021e-015 0
lhumerus -46.7578 8.93255 73.7658
lradius 43.1097
lwrist -12.9389
lhand -2.59236 14.9868
lfingers 7.12502
lthumb 23.1051 43.6214
rfemur -22.0288 10.4311 20.3591
rtibia 22.876
rfoot -12.6389 -8.9575
rtoes -3.82105
lfemur -22.5742 -12.2878 -11.5755
ltibia 28.8787
lfoot -19.0252 24.346
ltoes 2.37724
130
root 0.167851 15.8387 3.75625 15.0973 -9.33805 -4.56015
lowerback -0.514271 -2.41153 3.96237
upperback -5.01666 -3.1238 0.768872
thorax -5.07449 -1.71608 -1.28927
lowerneck -5.93963 -8.71077 -3.11579
upperneck 22.9347 -10.2361 -7.104
head 7.84407 -5.82672 -2.683
rclavicle -1.717e-014 1.23246e-014
rhumerus -37.0195 3.3357 -79.8528
rradius 39.3107
rwrist 1.72577
rhand -9.66177 -6.58379
rfingers 7.12502
rthumb 16.3093 -35.9179
lclavicle -1.717e-014 1.23246e-014
lhumerus -46.794 8.89691 73.9067
lradius 43.1179
lwrist -13.0004
lhand -2.53806 15.0075
lfingers 7.12502
lthumb 23.1572 43.6356
rfemur -21.9771 10.3596 20.522
rtibia 22.9261
rfoot -12.7066 -8.76304
rtoes -3.67636
lfemur -22.4227 -12.3227 -11.4747
ltibia 28.8706
lfoot -19.1355 24.4725
ltoes 2.42066
131
root 0.141332 15.8368 3.75622 15.0261 -9.45245 -4.57675
lowerback -0.498322 -2.43503 4.00167
upperback -5.05349 -3.15252 0.780279
thorax -5.12583 -1.73312 -1.29591
lowerneck -6.03522 -8.7101 -3.12387
upperneck 22.848 -10.2624 -6.96392
head 7.84017 -5.82644 -2.64036
rclavicle 2.75814e-015 1.66979e-014
rhumerus -36.9952 3.6425 -80.0551
rradius 39.8272
rwrist 1.35232
rhand -9.70545 -6.6623
rfingers 7.12502
rthumb 16.2673 -35.9999
lclavicle 2.75814e-015 1.66979e-014
lhumerus -46.8164 8.8641 74.053
lradius 43.1286
lwrist -13.0486
lhand -2.5095 15.0251
lfingers 7.12502
lthumb 23.1846 43.6498
rfemur -21.9182 10.2895 20.6793
rtibia 22.974
rfoot -12.7716 -8.58264
rtoes -3.53375
lfemur -22.2708 -12.36 -11.3802
ltibia 28.8648
lfoot -19.2425 24.5887
ltoes 2.45508
132
root 0.114996 15.8351 3.75577 14.9557 -9.55138 -4.58957
lowerback -0.482489 -2.45788 4.04116
upperback -5.08756 -3.18043 0.790306
thorax -5.17429 -1.74973 -1.30418
lowerneck -6.13063 -8.71096 -3.13155
upperneck 22.7775 -10.2887 -6.83114
head 7.84125 -5.82703 -2.60093
rclavicle 3.67006e-014 -1.19271e-014
rhumerus -36.9749 3.92121 -80.2435
rradius 40.3138
rwrist 0.997422
rhand -9.74755 -6.75266
rfingers 7.12502
rthumb 16.2267 -36.0936
lclavicle 3.67006e-014 -1.19271e-014
lhumerus -46.8215 8.8229 74.2006
lradius 43.1455
lwrist -13.0856
lhand -2.49598 15.0476
lfingers 7.12502
lthumb 23.1976 43.6706
rfemur -21.861 10.2301 20.8299
rtibia 23.0234
rfoot -12.8325 -8.42585
rtoes -3.39363
lfemur -22.1261 -12.3985 -11.2879
ltibia 28.8582
lfoot -19.3428 24.6922
ltoes 2.48795
133
root 0.0888879 15.8335 3.75503 14.8861 -9.63861 -4.59555
lowerback -0.465013 -2.48026 4.07509
upperback -5.12103 -3.2077 0.801209
thorax -5.22268 -1.76576 -1.30838
lowerneck -6.22877 -8.71246 -3.14066
upperneck 22.725 -10.3121 -6.71234
head 7.84823 -5.82788 -2.56656
rclavicle -2.00773e-014 -8.74653e-015
rhumerus -36.9605 4.18036 -80.417
rradius 40.7629
rwrist 0.648165
rhand -9.80982 -6.82679
rfingers 7.12502
rthumb 16.1668 -36.1726
lclavicle -2.00773e-014 -8.74653e-015
lhumerus -46.8148 8.77909 74.3527
lradius 43.165
lwrist -13.1106
lhand -2.51748 15.0642
lfingers 7.12502
lthumb 23.177 43.6898
rfemur -21.8092 10.1793 20.9703
rtibia 23.079
rfoot -12.8898 -8.28584
rtoes -3.26262
lfemur -21.9853 -12.4412 -11.2018
ltibia 28.8459
lfoot -19.4335 24.7884
ltoes 2.52122
134
root 0.0629051 15.8322 3.75393 14.8207 -9.71448 -4.5926
lowerback -0.450424 -2.50105 4.10163
upperback -5.15364 -3.23321 0.810563
thorax -5.26805 -1.78057 -1.31031
lowerneck -6.33281 -8.71545 -3.14498
upperneck 22.688 -10.3339 -6.61039
head 7.86026 -5.82938 -2.53926
rclavicle 5.86415e-014 2.14687e-014
rhumerus -36.943 4.40764 -80.5759
rradius 41.16
rwrist 0.321352
rhand -9.89107 -6.86691
rfingers 7.12502
rthumb 16.0885 -36.219
lclavicle 5.86415e-014 2.14687e-014
lhumerus -46.7972 8.73095 74.5079
lradius 43.1953
lwrist -13.1284
lhand -2.5701 15.0858
lfingers 7.12502
lthumb 23.1265 43.7178
rfemur -21.7692 10.139 21.0972
rtibia 23.1435
rfoot -12.9425 -8.16387
rtoes -3.13778
lfemur -21.8522 -12.4876 -11.1222
ltibia 28.8249
lfoot -19.5154 24.8773
ltoes 2.5616
135
root 0.0371472 15.8313 3.75264 14.7597 -9.77557 -4.57657
lowerback -0.441819 -2.52254 4.11965
upperback -5.18542 -3.26021 0.818274
thorax -5.30882 -1.79573 -1.30944
lowerneck -6.44292 -8.71834 -3.14852
upperneck 22.664 -10.3519 -6.52338
head 7.87687 -5.83053 -2.51751
rclavicle 3.08116e-014 -6.75868e-015
rhumerus -36.9257 4.61178 -80.7207
rradius 41.5052
rwrist 0.00719776
rhand -9.9978 -6.85312
rfingers 7.12502
rthumb 15.9858 -36.2135
lclavicle 3.08116e-014 -6.75868e-015
lhumerus -46.7683 8.68099 74.6668
lradius 43.2353
lwrist -13.1385
lhand -2.64738 15.1121
lfingers 7.12502
lthumb 23.0523 43.7533
rfemur -21.7409 10.0989 21.2075
rtibia 23.2185
rfoot -12.9944 -8.0541
rtoes -3.0219
lfemur -21.7275 -12.5381 -11.0538
ltibia 28.7927
lfoot -19.5834 24.9567
ltoes 2.60197
136
root 0.0115606 15.8306 3.75104 14.7061 -9.82553 -4.54788
lowerback -0.435775 -2.54413 4.12494
upperback -5.22238 -3.28764 0.827299
thorax -5.35271 -1.81063 -1.30005
lowerneck -6.54641 -8.71957 -3.15743
upperneck 22.646 -10.364 -6.45038
head 7.89402 -5.83063 -2.49886
rclavicle -3.4017e-014 -5.1684e-015
rhumerus -36.9118 4.79794 -80.8504
rradius 41.795
rwrist -0.280792
rhand -10.1244 -6.77825
rfingers 7.12502
rthumb 15.8639 -36.1484
lclavicle -3.4017e-014 -5.1684e-015
lhumerus -46.7436 8.63662 74.8279
lradius 43.2988
lwrist -13.1429
lhand -2.74161 15.1435
lfingers 7.12502
lthumb 22.9619 43.796
rfemur -21.7278 10.0627 21.3005
rtibia 23.3018
rfoot -13.0431 -7.9584
rtoes -2.9209
lfemur -21.6151 -12.5902 -10.9953
ltibia 28.7503
lfoot -19.6366 25.0284
ltoes 2.63518
137
root -0.0137405 15.8302 3.74935 14.6595 -9.85994 -4.5085
lowerback -0.443058 -2.56512 4.12399
upperback -5.2594 -3.31513 0.835595
thorax -5.38871 -1.82519 -1.2886
lowerneck -6.63325 -8.72227 -3.17091
upperneck 22.6223 -10.3763 -6.38655
head 7.90603 -5.83185 -2.48128
rclavicle -8.08308e-014 9.93923e-015
rhumerus -36.8998 4.96136 -80.9667
rradius 42.0364
rwrist -0.547614
rhand -10.2334 -6.72697
rfingers 7.12502
rthumb 15.7589 -36.1054
lclavicle -8.08308e-014 9.93923e-015
lhumerus -46.7006 8.58795 74.9945
lradius 43.3613
lwrist -13.1353
lhand -2.84991 15.1782
lfingers 7.12502
lthumb 22.858 43.8436
rfemur -21.7243 10.0179 21.3804
rtibia 23.3893
rfoot -13.0951 -7.86848
rtoes -2.81573
lfemur -21.5166 -12.6423 -10.9449
ltibia 28.7011
lfoot -19.6741 25.0889
ltoes 2.65812
